<svg xmlns="http://www.w3.org/2000/svg" xmlns:xlink="http://www.w3.org/1999/xlink" width="137.483" height="137.483" viewBox="0 0 137.483 137.483"><defs><radialGradient id="a" cx="0.418" cy="0.458" r="0.583" gradientTransform="matrix(1, -0.011, 0.011, 1, -0.005, 0.005)" gradientUnits="objectBoundingBox"><stop offset="0" stop-color="#fff"/><stop offset="1" stop-color="#07d"/></radialGradient></defs><path d="M1201.705,395.927a25.4,25.4,0,0,1-14.592-4.625l-.05.034a5.342,5.342,0,0,0-6.812.537L1159.822,407l.024.051c-1.783,1.446-2.565,5.57-2.028,7.8l-.043.019a25.371,25.371,0,0,1,.967,6.84,25.778,25.778,0,1,1-38.673-22.292v-.049a7,7,0,0,0,2.783-6.043.358.358,0,0,1,.05-.043l-4.524-22.384c-.516-3.961-2.741-9.31-4.748-9.424v-.021a25.77,25.77,0,1,1,27.926-25.671,4.3,4.3,0,1,1-8.592,0,17.186,17.186,0,1,0-17.186,17.185c4.747,0,9.13,6.064,10.741,15.037h.036l4.705,23.258-.022.043c1.366,7.467-2.421,13.411-5.886,15.014l-.03.067a17.205,17.205,0,1,0,23.05,7.811l.073-.221a3.75,3.75,0,0,1-.445-.859c-1.175-4.167.765-8.6,4.733-11.536l.015-.028,26.389-19.542c2.777-2.049,7.74-1.411,12.607,2.148l.08.013a17,17,0,0,0,9.881,3.166,17.186,17.186,0,1,0-14.206-26.758l-.094.034c-2.441,3.394-7.409,5.321-10.7,4.118l-.1.043-16.491-6.324a4.3,4.3,0,0,1,3.207-7.976l11.579,4.44c1.862.709,5.376.522,6.966-1.274a.622.622,0,0,0,.1.049,25.747,25.747,0,1,1,19.741,42.24ZM1148,352.964a4.3,4.3,0,1,1,4.3-4.3,4.3,4.3,0,0,1-4.3,4.3Z" transform="translate(-1090 -310)" fill-rule="evenodd" fill="url(#a)"/></svg>