<svg xmlns="http://www.w3.org/2000/svg" xmlns:xlink="http://www.w3.org/1999/xlink" width="137.483" height="128.891" viewBox="0 0 137.483 128.891"><defs><radialGradient id="a" cx="0.5" cy="0.5" r="0.533" gradientTransform="matrix(0.938, 0, 0, 1, 0.031, 0)" gradientUnits="objectBoundingBox"><stop offset="0" stop-color="#fff"/><stop offset="1" stop-color="#07d"/></radialGradient></defs><path d="M773.187,1304.52a4.3,4.3,0,1,1,4.3-4.3,4.3,4.3,0,0,1-4.3,4.3ZM760.3,1338.891H657.185A17.185,17.185,0,0,1,640,1321.705v-32.287a10.741,10.741,0,0,1,10.741-10.742,11.255,11.255,0,0,1,7.031,2.621c.052.043.073.021.107.043a25.609,25.609,0,0,0,16.492,5.994h18.26a10.718,10.718,0,0,1,8.928,4.769c.036.058.088.079.129.12a8.569,8.569,0,0,0,14.107,0c.043-.041.095-.062.129-.12a10.724,10.724,0,0,1,8.93-4.769h18.259a25.778,25.778,0,0,0,25.312-20.96,8.412,8.412,0,0,0,.466-2.671v-10.741a8.591,8.591,0,0,0-8.593-8.593H657.185a8.591,8.591,0,0,0-8.593,8.593v12.89a4.3,4.3,0,0,1-8.593,0v-12.89a17.189,17.189,0,0,1,17.185-17.185H760.3a17.189,17.189,0,0,1,17.185,17.185v8.593a34.213,34.213,0,0,1-8.593,22.685,33.22,33.22,0,0,1-2.434,2.491c-.052.05-.1.1-.144.135q-1.2,1.1-2.507,2.085c-.107.085-.221.165-.329.244-.808.6-1.648,1.158-2.514,1.689-.172.107-.344.215-.522.324-.81.47-1.641.9-2.486,1.308-.243.122-.486.243-.73.359-.8.359-1.617.675-2.449.973-.307.116-.61.239-.917.337-.795.266-1.617.479-2.434.687-.35.087-.7.193-1.053.265-.838.187-1.7.307-2.565.429-.344.049-.673.123-1.023.157a33.811,33.811,0,0,1-3.673.2H727.938a4.3,4.3,0,0,0-3.615,1.977.215.215,0,0,1-.148.092,12.806,12.806,0,0,1-11.136,6.524h-8.593A12.807,12.807,0,0,1,693.309,1298a.215.215,0,0,1-.148-.092,4.3,4.3,0,0,0-3.615-1.977H674.371a34.112,34.112,0,0,1-22.262-8.277c.077.129.1.2.043.142a2.154,2.154,0,0,0-3.56,1.627v32.287a8.59,8.59,0,0,0,8.593,8.593H760.3a8.59,8.59,0,0,0,8.593-8.593v-4.3a4.3,4.3,0,1,1,8.593,0v4.3a17.185,17.185,0,0,1-17.185,17.185Zm-30.075-111.705a4.3,4.3,0,0,1-4.3-4.3,4.3,4.3,0,0,0-4.3-4.3H695.853a4.3,4.3,0,0,0-4.3,4.3,4.3,4.3,0,1,1-8.593,0v-2.148A10.745,10.745,0,0,1,693.7,1210h30.074a10.745,10.745,0,0,1,10.741,10.741v2.148a4.3,4.3,0,0,1-4.3,4.3Z" transform="translate(-640 -1210)" fill-rule="evenodd" fill="url(#a)"/></svg>