<svg xmlns="http://www.w3.org/2000/svg" xmlns:xlink="http://www.w3.org/1999/xlink" width="85.927" height="137.483" viewBox="0 0 85.927 137.483"><defs><radialGradient id="a" cx="0.5" cy="0.5" r="0.41" gradientTransform="matrix(1.6, 0, 0, 0.954, -0.3, 0.023)" gradientUnits="objectBoundingBox"><stop offset="0" stop-color="#fff"/><stop offset="1" stop-color="#07d"/></radialGradient></defs><path d="M373.482,807.26a4.3,4.3,0,0,1-4.3-4.3,25.78,25.78,0,0,1,25.778-25.778,4.3,4.3,0,0,1,0,8.593,17.19,17.19,0,0,0-17.185,17.185,4.3,4.3,0,0,1-4.3,4.3Zm48.6,28.942a1.031,1.031,0,0,0,.322-.185,4.429,4.429,0,0,0-1.661,3.465v6.445a17.181,17.181,0,0,1-17.185,17.185H382.074a4.3,4.3,0,0,0,0,8.593H399.26a4.3,4.3,0,1,1,0,8.593H388.519a4.193,4.193,0,0,1-.9-.1,11.462,11.462,0,0,1-1.246.1h-4.3a12.889,12.889,0,1,1,0-25.778h21.482a8.591,8.591,0,0,0,8.593-8.593v-6.445a12.84,12.84,0,0,1,4.548-9.824,6.058,6.058,0,0,1-1.169.793,34.371,34.371,0,1,0-41.129,0,6.055,6.055,0,0,1-1.169-.793,12.84,12.84,0,0,1,4.548,9.824v2.148a4.3,4.3,0,1,1-8.593,0v-2.148a4.429,4.429,0,0,0-1.661-3.465,1.03,1.03,0,0,0,.322.185,42.964,42.964,0,1,1,54.233,0Zm-31.413,52.688h8.593a4.3,4.3,0,1,1,0,8.593h-8.593a4.3,4.3,0,1,1,0-8.593Zm25.778-17.185a4.3,4.3,0,1,1-4.3,4.3,4.3,4.3,0,0,1,4.3-4.3Z" transform="translate(-352 -760)" fill-rule="evenodd" fill="url(#a)"/></svg>