<svg xmlns="http://www.w3.org/2000/svg" xmlns:xlink="http://www.w3.org/1999/xlink" width="137.483" height="137.483" viewBox="0 0 137.483 137.483"><defs><radialGradient id="a" cx="0.5" cy="0.571" r="0.622" gradientUnits="objectBoundingBox"><stop offset="0" stop-color="#f0eaff"/><stop offset="1" stop-color="#07d"/></radialGradient></defs><path d="M610.3,1197.483H507.185A17.185,17.185,0,0,1,490,1180.3v-12.889c0-7.018,5.435-13.419,14.507-18.5l.015.021a4,4,0,0,1,1.875-.518,4.049,4.049,0,0,1,4.047,4.047,4,4,0,0,1-2.062,3.452l.028.05c-6.187,3.394-9.817,7.362-9.817,11.45V1180.3a8.59,8.59,0,0,0,8.593,8.593H610.3a8.59,8.59,0,0,0,8.593-8.593v-12.889c0-11.864-26.932-21.482-60.149-21.482a34.157,34.157,0,0,1-20.96-7.175h0a34.254,34.254,0,0,1-13.274-24.56c-.073-.875-.137-1.749-.137-2.636v-25.778A25.779,25.779,0,0,1,550.149,1060h17.185a25.779,25.779,0,0,1,25.778,25.778v25.778a24.353,24.353,0,0,1-.138,2.636,33.8,33.8,0,0,1-4.131,13.761A4.28,4.28,0,1,1,581,1124.6l-.043-.028a25.589,25.589,0,0,0,3.56-13.018v-25.778a17.185,17.185,0,0,0-17.185-17.185H550.149a17.189,17.189,0,0,0-17.185,17.185v25.778a25.763,25.763,0,0,0,24.633,25.722c.344.034.724.056,1.145.056a151.9,151.9,0,0,1,20.951,1.424c1.69.236,3.353.51,4.984.8.058.015.116.021.18.037,1.588.279,3.143.6,4.675.93.129.03.258.058.4.086q4.553,1.021,8.694,2.314c.127.043.262.086.4.12q2.03.644,3.946,1.356c.092.028.172.062.258.092,1.268.473,2.492.958,3.673,1.469.041.019.093.035.129.049,1.173.507,2.3,1.038,3.386,1.575.15.079.307.159.46.236,1.074.543,2.118,1.11,3.1,1.69l.036.021c.967.564,1.869,1.151,2.741,1.746.131.092.258.178.38.264q1.266.893,2.391,1.82c.122.1.236.2.359.3.715.616,1.4,1.231,2.019,1.862l.107.108a25.006,25.006,0,0,1,1.725,1.974c.107.138.208.275.316.41a20.817,20.817,0,0,1,1.353,2.026c.049.086.092.178.144.271a16.936,16.936,0,0,1,.909,1.936c.049.12.107.236.15.359a14.418,14.418,0,0,1,.6,2.118c.028.15.049.3.077.458a13.565,13.565,0,0,1,.208,2.228V1180.3a17.185,17.185,0,0,1-17.185,17.186Zm-81.631-51.556a4.3,4.3,0,1,1-4.3-4.3,4.3,4.3,0,0,1,4.3,4.3Z" transform="translate(-490 -1060)" fill-rule="evenodd" fill="url(#a)"/></svg>