<svg xmlns="http://www.w3.org/2000/svg" xmlns:xlink="http://www.w3.org/1999/xlink" width="137.483" height="137.483" viewBox="0 0 137.483 137.483"><defs><radialGradient id="a" cx="0.457" cy="0.5" r="0.53" gradientUnits="objectBoundingBox"><stop offset="0" stop-color="#fff"/><stop offset="1" stop-color="#07d"/></radialGradient></defs><path d="M1004.446,571.705a4.3,4.3,0,1,1-4.3,4.3,4.3,4.3,0,0,1,4.3-4.3Zm-4.3-30.075a4.3,4.3,0,1,1,8.593,0v17.186a4.3,4.3,0,1,1-8.593,0V541.63Zm60.149,55.853H957.185A17.185,17.185,0,0,1,940,580.3V541.63a4.3,4.3,0,1,1,8.592,0V578.15a10.745,10.745,0,0,0,10.741,10.741h98.816a10.745,10.745,0,0,0,10.741-10.741V539.482a10.745,10.745,0,0,0-10.741-10.741H978.667a12.888,12.888,0,0,1-12.889-12.889V502.964a42.964,42.964,0,1,1,85.927,0v4.3a4.3,4.3,0,1,1-8.592,0v-4.3a34.371,34.371,0,0,0-68.742,0V513.7a6.444,6.444,0,0,0,6.445,6.445H1060.3a17.189,17.189,0,0,1,17.186,17.185V580.3a17.185,17.185,0,0,1-17.186,17.185ZM952.889,528.742a4.3,4.3,0,1,1,4.3-4.3,4.3,4.3,0,0,1-4.3,4.3Z" transform="translate(-940 -460)" fill-rule="evenodd" fill="url(#a)"/></svg>