<svg xmlns="http://www.w3.org/2000/svg" xmlns:xlink="http://www.w3.org/1999/xlink" width="137.483" height="120.296" viewBox="0 0 137.483 120.296"><defs><radialGradient id="a" cx="0.5" cy="0.529" r="0.5" gradientTransform="translate(0.063) scale(0.875 1)" gradientUnits="objectBoundingBox"><stop offset="0" stop-color="#fff"/><stop offset="1" stop-color="#07d"/></radialGradient></defs><path d="M1672.6,981.63l-54.713,23.037a25.431,25.431,0,0,1-18.3,0l-54.715-23.037a8.073,8.073,0,0,1-2.475-1.691,8.174,8.174,0,0,1,2.526-13.295l6.9-2.9a4.159,4.159,0,0,1,2.142-.608,4.219,4.219,0,0,1,1.231,8.258l-2.1.881a2.116,2.116,0,0,0-.009,3.751l48.726,20.33c.131.049.245.077.374.129a17.245,17.245,0,0,0,13.067.019c.144-.056.271-.093.417-.148l48.733-20.33a2.117,2.117,0,0,0-.009-3.751l-2.1-.881a4.219,4.219,0,0,1,1.231-8.258,4.162,4.162,0,0,1,2.142.608l6.9,2.9a8.279,8.279,0,0,1,2.527,1.712,8.187,8.187,0,0,1,0,11.583,8.084,8.084,0,0,1-2.477,1.691Zm0-27.926-54.713,23.037a25.431,25.431,0,0,1-18.3,0L1544.875,953.7a8.068,8.068,0,0,1-2.475-1.691,8.174,8.174,0,0,1,2.526-13.295L1599.59,915.7a25.431,25.431,0,0,1,18.3,0l5.07,2.135a4.28,4.28,0,1,1-3.3,7.847l-3.993-1.669c-.146-.056-.273-.092-.417-.148a17.231,17.231,0,0,0-13.067.021c-.129.049-.243.077-.374.127l-48.717,20.33a2.116,2.116,0,0,0-.009,3.75l48.726,20.33c.131.05.245.078.374.129a17.244,17.244,0,0,0,13.067.019c.144-.056.271-.093.417-.148L1664.4,948.1a2.117,2.117,0,0,0-.009-3.75l-6.587-2.75a4.22,4.22,0,0,1,1.418-8.2,4.168,4.168,0,0,1,2.17.623l11.164,4.7a8.283,8.283,0,0,1,2.527,1.712,8.186,8.186,0,0,1,0,11.583,8.079,8.079,0,0,1-2.477,1.691Zm-35.938-20.371a4.3,4.3,0,1,1,4.3-4.3,4.3,4.3,0,0,1-4.3,4.3Zm-91.741,61.237,6.9-2.9a4.159,4.159,0,0,1,2.142-.608,4.219,4.219,0,0,1,1.231,8.258l-2.1.881a2.116,2.116,0,0,0-.009,3.751l48.726,20.33c.131.05.245.078.374.129a17.243,17.243,0,0,0,13.067.02c.144-.056.271-.093.417-.148l48.733-20.33a2.117,2.117,0,0,0-.009-3.751l-2.1-.881a4.219,4.219,0,0,1,1.231-8.258,4.162,4.162,0,0,1,2.142.608l6.9,2.9a8.283,8.283,0,0,1,2.527,1.712,8.187,8.187,0,0,1,0,11.583,8.083,8.083,0,0,1-2.477,1.691l-54.713,23.037a25.434,25.434,0,0,1-18.3,0l-54.715-23.037a8.072,8.072,0,0,1-2.475-1.691,8.174,8.174,0,0,1,2.526-13.295Z" transform="translate(-1539.999 -914)" fill-rule="evenodd" fill="url(#a)"/></svg>